 http://imageshack.us/m/269/6638/ty3dwdt2.jpg

Country.......: USA, United Kingdom
Genre.........: Thriller, Drama, Crime
Date release..: 28.01.2010 [World]
Director......: Martin Campbell
Writers.......: William Monahan, Andrew Bovell
Duration......: 117 min.
More..........: http://www.imdb.com/title/tt1226273
Trailer.......: http://www.imdb.com/video/imdb/vi2723086873
Trailer.......:

Pilot :
As homicide detective Thomas Craven investigates the death of his activist daughter, he uncovers not only her secret life, but a corporate cover-up and government collusion that attracts an agent tasked with cleaning up the evidence. 

Cats :
Mel Gibson   	 ...  	Thomas Craven
Ray Winstone 	... 	Darius Jedburgh
Danny Huston 	... 	Jack Bennett
Bojana Novakovic 	... 	Emma Craven
Shawn Roberts 	... 	Burnham
David Aaron Baker 	... 	Millroy
Jay O. Sanders 	... 	Whitehouse
Denis O Hare 	... 	Moore
Damian Young 	... 	Senator Jim Pine
Caterina Scorsone 	... 	Melissa
Frank Grillo 	... 	Agent One
Wayne Duvall 	... 	Chief of Police
Gbenga Akinnagbe 	... 	Detective Darcy Jones
Gabrielle Popa 	... 	Young Emma (as Maria Gabrielle Popa)
Paul Sparks 	... 	Northampton Police Detective 

Data Technical :
!!! SAMPLE !!!
Audio.....: English
Subtitles.: English .srt, Spanish .srt, Polish .txt
Format                           : AVI
Format/Info                      : Audio Video Interleave
File size                        : 702 MiB
Duration                         : 1h 56mn
Overall bit rate                 : 840 Kbps
Writing application              : VirtualDubMod 1.5.4.1 (build 2178/release)
Writing library                  : VirtualDubMod build 2178/release
Video
ID                               : 0
Format                           : MPEG-4 Visual
Format profile                   : Advanced Simple@L5
Format settings, BVOP            : Yes
Format settings, QPel            : No
Format settings, GMC             : No warppoints
Format settings, Matrix          : Default (H.263)
Muxing mode                      : Packed bitstream
Codec ID                         : DX50
Codec ID/Hint                    : DivX 5
Duration                         : 1h 56mn
Bit rate                         : 719 Kbps
Width                            : 640 pixels
Height                           : 272 pixels
Display aspect ratio             : 2.35:1
Frame rate                       : 23.976 fps
Color space                      : YUV
Chroma subsampling               : 4:2:0
Bit depth                        : 8 bits
Scan type                        : Progressive
Bits/(Pixel*Frame)               : 0.172
Stream size                      : 601 MiB (86%)
Writing library                  : XviD 1.2.1 (UTC 2008-12-04)
Audio
ID                               : 1
Format                           : MPEG Audio
Format version                   : Version 1
Format profile                   : Layer 3
Mode                             : Joint stereo
Mode extension                   : MS Stereo
Codec ID                         : 55
Codec ID/Hint                    : MP3
Duration                         : 1h 56mn
Bit rate mode                    : Constant
Bit rate                         : 112 Kbps
Channel(s)                       : 2 channels
Sampling rate                    : 44.1 KHz
Stream size                      : 93.6 MiB (13%)
Alignment                        : Split accross interleaves
Interleave, duration             : 42 ms (1.00 video frame)
Interleave, preload duration     : 500 ms

Screen : 
http://imageshack.us/m/717/4008/edgeofdarkness2010s1.jpg 
http://imageshack.us/m/600/9510/edgeofdarkness2010s2.jpg 
http://imageshack.us/m/204/149/edgeofdarkness2010s3.jpg 
http://imageshack.us/m/863/6148/edgeofdarkness2010s4.jpg 
http://imageshack.us/m/718/1176/edgeofdarkness2010s5.jpg